<mxfile host="app.diagrams.net" modified="2021-10-21T16:44:47.120Z" agent="5.0 (Windows NT 10.0; Win64; x64) AppleWebKit/537.36 (KHTML, like Gecko) Chrome/94.0.4606.81 Safari/537.36" etag="0BvcnrJbXe7baJfVu8Hu" version="15.5.8" type="github">
  <diagram id="SodQkscSPkKaEFACgImG" name="Page-1">
    <mxGraphModel dx="1422" dy="794" grid="1" gridSize="10" guides="1" tooltips="1" connect="1" arrows="1" fold="1" page="1" pageScale="1" pageWidth="827" pageHeight="1169" math="0" shadow="0">
      <root>
        <mxCell id="0" />
        <mxCell id="1" parent="0" />
        <mxCell id="z-3LRpEQlULu_if7Jt6z-3" value="" style="edgeStyle=orthogonalEdgeStyle;rounded=0;orthogonalLoop=1;jettySize=auto;html=1;fillColor=#d5e8d4;strokeColor=#82b366;strokeWidth=5;" edge="1" parent="1" source="z-3LRpEQlULu_if7Jt6z-1" target="z-3LRpEQlULu_if7Jt6z-2">
          <mxGeometry relative="1" as="geometry" />
        </mxCell>
        <mxCell id="z-3LRpEQlULu_if7Jt6z-1" value="&lt;b&gt;INÍCIO&lt;/b&gt;" style="ellipse;whiteSpace=wrap;html=1;fillColor=#d5e8d4;strokeColor=#82b366;strokeWidth=4;" vertex="1" parent="1">
          <mxGeometry x="10" y="20" width="120" height="60" as="geometry" />
        </mxCell>
        <mxCell id="z-3LRpEQlULu_if7Jt6z-5" value="" style="edgeStyle=orthogonalEdgeStyle;rounded=0;orthogonalLoop=1;jettySize=auto;html=1;fillColor=#d5e8d4;strokeColor=#82b366;strokeWidth=5;" edge="1" parent="1" source="z-3LRpEQlULu_if7Jt6z-2" target="z-3LRpEQlULu_if7Jt6z-4">
          <mxGeometry relative="1" as="geometry" />
        </mxCell>
        <mxCell id="z-3LRpEQlULu_if7Jt6z-2" value="Criação do Produto" style="whiteSpace=wrap;html=1;fillColor=#d5e8d4;strokeColor=#82b366;strokeWidth=4;" vertex="1" parent="1">
          <mxGeometry x="170" y="35" width="120" height="30" as="geometry" />
        </mxCell>
        <mxCell id="z-3LRpEQlULu_if7Jt6z-7" value="" style="edgeStyle=orthogonalEdgeStyle;rounded=0;orthogonalLoop=1;jettySize=auto;html=1;fillColor=#d5e8d4;strokeColor=#82b366;strokeWidth=5;" edge="1" parent="1" source="z-3LRpEQlULu_if7Jt6z-4" target="z-3LRpEQlULu_if7Jt6z-6">
          <mxGeometry relative="1" as="geometry" />
        </mxCell>
        <mxCell id="z-3LRpEQlULu_if7Jt6z-4" value="Pesquisa de Mercado" style="whiteSpace=wrap;html=1;fillColor=#d5e8d4;strokeColor=#82b366;strokeWidth=4;" vertex="1" parent="1">
          <mxGeometry x="330" y="30" width="120" height="40" as="geometry" />
        </mxCell>
        <mxCell id="z-3LRpEQlULu_if7Jt6z-9" value="" style="edgeStyle=orthogonalEdgeStyle;rounded=0;orthogonalLoop=1;jettySize=auto;html=1;fillColor=#d5e8d4;strokeColor=#82b366;strokeWidth=5;" edge="1" parent="1" source="z-3LRpEQlULu_if7Jt6z-6" target="z-3LRpEQlULu_if7Jt6z-8">
          <mxGeometry relative="1" as="geometry" />
        </mxCell>
        <mxCell id="z-3LRpEQlULu_if7Jt6z-6" value="Definição de Requisitos de Produto" style="whiteSpace=wrap;html=1;fillColor=#d5e8d4;strokeColor=#82b366;strokeWidth=4;" vertex="1" parent="1">
          <mxGeometry x="490" y="20" width="120" height="60" as="geometry" />
        </mxCell>
        <mxCell id="z-3LRpEQlULu_if7Jt6z-11" value="" style="edgeStyle=orthogonalEdgeStyle;rounded=0;orthogonalLoop=1;jettySize=auto;html=1;fillColor=#d5e8d4;strokeColor=#82b366;strokeWidth=5;" edge="1" parent="1" source="z-3LRpEQlULu_if7Jt6z-8" target="z-3LRpEQlULu_if7Jt6z-10">
          <mxGeometry relative="1" as="geometry" />
        </mxCell>
        <mxCell id="z-3LRpEQlULu_if7Jt6z-8" value="Criação do Documento&lt;br&gt;(Folha de Requisitos de Produto)" style="whiteSpace=wrap;html=1;fillColor=#d5e8d4;strokeColor=#82b366;strokeWidth=4;" vertex="1" parent="1">
          <mxGeometry x="700" y="20" width="120" height="60" as="geometry" />
        </mxCell>
        <mxCell id="z-3LRpEQlULu_if7Jt6z-13" value="" style="edgeStyle=orthogonalEdgeStyle;rounded=0;orthogonalLoop=1;jettySize=auto;html=1;fillColor=#dae8fc;strokeColor=#6c8ebf;strokeWidth=5;" edge="1" parent="1" source="z-3LRpEQlULu_if7Jt6z-10" target="z-3LRpEQlULu_if7Jt6z-12">
          <mxGeometry relative="1" as="geometry" />
        </mxCell>
        <mxCell id="z-3LRpEQlULu_if7Jt6z-10" value="Encaminhamento para a Engenharia de Produto" style="whiteSpace=wrap;html=1;fillColor=#dae8fc;strokeColor=#6c8ebf;strokeWidth=4;" vertex="1" parent="1">
          <mxGeometry x="700" y="123" width="120" height="60" as="geometry" />
        </mxCell>
        <mxCell id="z-3LRpEQlULu_if7Jt6z-15" value="" style="edgeStyle=orthogonalEdgeStyle;rounded=0;orthogonalLoop=1;jettySize=auto;html=1;entryX=1;entryY=0.5;entryDx=0;entryDy=0;strokeWidth=5;fillColor=#dae8fc;strokeColor=#6c8ebf;" edge="1" parent="1" source="z-3LRpEQlULu_if7Jt6z-12" target="z-3LRpEQlULu_if7Jt6z-16">
          <mxGeometry relative="1" as="geometry">
            <mxPoint x="450" y="150" as="targetPoint" />
          </mxGeometry>
        </mxCell>
        <mxCell id="z-3LRpEQlULu_if7Jt6z-12" value="Desenvolvimento do Projeto Mecânico 3D" style="whiteSpace=wrap;html=1;fillColor=#dae8fc;strokeColor=#6c8ebf;strokeWidth=4;" vertex="1" parent="1">
          <mxGeometry x="550" y="123" width="120" height="60" as="geometry" />
        </mxCell>
        <mxCell id="z-3LRpEQlULu_if7Jt6z-19" value="" style="edgeStyle=orthogonalEdgeStyle;rounded=0;orthogonalLoop=1;jettySize=auto;html=1;fillColor=#dae8fc;strokeColor=#6c8ebf;strokeWidth=5;" edge="1" parent="1" source="z-3LRpEQlULu_if7Jt6z-16" target="z-3LRpEQlULu_if7Jt6z-18">
          <mxGeometry relative="1" as="geometry" />
        </mxCell>
        <mxCell id="z-3LRpEQlULu_if7Jt6z-46" style="edgeStyle=orthogonalEdgeStyle;rounded=0;orthogonalLoop=1;jettySize=auto;html=1;exitX=0.5;exitY=0;exitDx=0;exitDy=0;entryX=0.5;entryY=0;entryDx=0;entryDy=0;fillColor=#dae8fc;strokeColor=#6c8ebf;strokeWidth=5;" edge="1" parent="1" source="z-3LRpEQlULu_if7Jt6z-16" target="z-3LRpEQlULu_if7Jt6z-12">
          <mxGeometry relative="1" as="geometry">
            <Array as="points">
              <mxPoint x="455" y="90" />
              <mxPoint x="610" y="90" />
            </Array>
          </mxGeometry>
        </mxCell>
        <mxCell id="z-3LRpEQlULu_if7Jt6z-16" value="Validação da&lt;br&gt;&amp;nbsp;Fabricação" style="rhombus;whiteSpace=wrap;html=1;fillColor=#dae8fc;strokeColor=#6c8ebf;strokeWidth=4;" vertex="1" parent="1">
          <mxGeometry x="400" y="108" width="110" height="90" as="geometry" />
        </mxCell>
        <mxCell id="z-3LRpEQlULu_if7Jt6z-24" value="" style="edgeStyle=orthogonalEdgeStyle;rounded=0;orthogonalLoop=1;jettySize=auto;html=1;fillColor=#dae8fc;strokeColor=#6c8ebf;strokeWidth=5;" edge="1" parent="1" source="z-3LRpEQlULu_if7Jt6z-18" target="z-3LRpEQlULu_if7Jt6z-23">
          <mxGeometry relative="1" as="geometry" />
        </mxCell>
        <mxCell id="z-3LRpEQlULu_if7Jt6z-42" style="edgeStyle=orthogonalEdgeStyle;rounded=0;orthogonalLoop=1;jettySize=auto;html=1;exitX=0.5;exitY=1;exitDx=0;exitDy=0;entryX=0.5;entryY=1;entryDx=0;entryDy=0;fillColor=#dae8fc;strokeColor=#6c8ebf;strokeWidth=5;" edge="1" parent="1" source="z-3LRpEQlULu_if7Jt6z-18" target="z-3LRpEQlULu_if7Jt6z-16">
          <mxGeometry relative="1" as="geometry">
            <Array as="points">
              <mxPoint x="257" y="230" />
              <mxPoint x="455" y="230" />
            </Array>
          </mxGeometry>
        </mxCell>
        <mxCell id="z-3LRpEQlULu_if7Jt6z-18" value="Liberação Do&lt;br&gt;&amp;nbsp;Projeto para&lt;br&gt;&amp;nbsp;PCP" style="rhombus;whiteSpace=wrap;html=1;fillColor=#dae8fc;strokeColor=#6c8ebf;strokeWidth=4;" vertex="1" parent="1">
          <mxGeometry x="193" y="108" width="128.25" height="90" as="geometry" />
        </mxCell>
        <mxCell id="z-3LRpEQlULu_if7Jt6z-21" value="&lt;b&gt;Projeto &lt;br&gt;Liberado&lt;/b&gt;" style="text;html=1;align=center;verticalAlign=middle;resizable=0;points=[];autosize=1;strokeColor=none;fillColor=none;" vertex="1" parent="1">
          <mxGeometry x="142" y="117" width="70" height="30" as="geometry" />
        </mxCell>
        <mxCell id="z-3LRpEQlULu_if7Jt6z-22" value="&lt;b&gt;Validação&lt;br&gt;Aprovada&lt;/b&gt;" style="text;html=1;align=center;verticalAlign=middle;resizable=0;points=[];autosize=1;strokeColor=none;fillColor=none;" vertex="1" parent="1">
          <mxGeometry x="341" y="118" width="70" height="30" as="geometry" />
        </mxCell>
        <mxCell id="z-3LRpEQlULu_if7Jt6z-26" value="" style="edgeStyle=orthogonalEdgeStyle;rounded=0;orthogonalLoop=1;jettySize=auto;html=1;fillColor=#fff2cc;strokeColor=#d6b656;strokeWidth=5;" edge="1" parent="1" source="z-3LRpEQlULu_if7Jt6z-23" target="z-3LRpEQlULu_if7Jt6z-25">
          <mxGeometry relative="1" as="geometry" />
        </mxCell>
        <mxCell id="z-3LRpEQlULu_if7Jt6z-23" value="Definir Etapa de Fabricação" style="whiteSpace=wrap;html=1;fillColor=#fff2cc;strokeColor=#d6b656;strokeWidth=4;" vertex="1" parent="1">
          <mxGeometry x="10.004999999999994" y="123" width="120" height="60" as="geometry" />
        </mxCell>
        <mxCell id="z-3LRpEQlULu_if7Jt6z-28" value="" style="edgeStyle=orthogonalEdgeStyle;rounded=0;orthogonalLoop=1;jettySize=auto;html=1;fillColor=#fff2cc;strokeColor=#d6b656;strokeWidth=5;" edge="1" parent="1" source="z-3LRpEQlULu_if7Jt6z-25" target="z-3LRpEQlULu_if7Jt6z-27">
          <mxGeometry relative="1" as="geometry" />
        </mxCell>
        <mxCell id="z-3LRpEQlULu_if7Jt6z-25" value="Definir Viabilidade de Fabricação" style="whiteSpace=wrap;html=1;fillColor=#fff2cc;strokeColor=#d6b656;strokeWidth=4;" vertex="1" parent="1">
          <mxGeometry x="10.005000000000003" y="255" width="120" height="60" as="geometry" />
        </mxCell>
        <mxCell id="z-3LRpEQlULu_if7Jt6z-32" value="" style="edgeStyle=orthogonalEdgeStyle;rounded=0;orthogonalLoop=1;jettySize=auto;html=1;fillColor=#fff2cc;strokeColor=#d6b656;strokeWidth=5;" edge="1" parent="1" source="z-3LRpEQlULu_if7Jt6z-27" target="z-3LRpEQlULu_if7Jt6z-31">
          <mxGeometry relative="1" as="geometry" />
        </mxCell>
        <mxCell id="z-3LRpEQlULu_if7Jt6z-27" value="Geração de Folha de Processos" style="whiteSpace=wrap;html=1;fillColor=#fff2cc;strokeColor=#d6b656;strokeWidth=4;" vertex="1" parent="1">
          <mxGeometry x="164.005" y="255" width="120" height="60" as="geometry" />
        </mxCell>
        <mxCell id="z-3LRpEQlULu_if7Jt6z-34" value="" style="edgeStyle=orthogonalEdgeStyle;rounded=0;orthogonalLoop=1;jettySize=auto;html=1;fillColor=#f8cecc;strokeColor=#b85450;strokeWidth=5;" edge="1" parent="1" source="z-3LRpEQlULu_if7Jt6z-31" target="z-3LRpEQlULu_if7Jt6z-33">
          <mxGeometry relative="1" as="geometry" />
        </mxCell>
        <mxCell id="z-3LRpEQlULu_if7Jt6z-44" style="edgeStyle=orthogonalEdgeStyle;rounded=0;orthogonalLoop=1;jettySize=auto;html=1;exitX=0.5;exitY=1;exitDx=0;exitDy=0;entryX=0.5;entryY=1;entryDx=0;entryDy=0;fillColor=#fff2cc;strokeColor=#d6b656;strokeWidth=5;" edge="1" parent="1" source="z-3LRpEQlULu_if7Jt6z-31" target="z-3LRpEQlULu_if7Jt6z-25">
          <mxGeometry relative="1" as="geometry" />
        </mxCell>
        <mxCell id="z-3LRpEQlULu_if7Jt6z-31" value="&lt;span&gt;Aprovação &lt;br&gt;Para Fabricação da Engenharia&lt;/span&gt;" style="rhombus;whiteSpace=wrap;html=1;fillColor=#f8cecc;strokeColor=#b85450;strokeWidth=4;" vertex="1" parent="1">
          <mxGeometry x="321.25" y="237.5" width="121" height="95" as="geometry" />
        </mxCell>
        <mxCell id="z-3LRpEQlULu_if7Jt6z-37" value="" style="edgeStyle=orthogonalEdgeStyle;rounded=0;orthogonalLoop=1;jettySize=auto;html=1;fillColor=#dae8fc;strokeColor=#5BBBFC;strokeWidth=5;" edge="1" parent="1" source="z-3LRpEQlULu_if7Jt6z-33" target="z-3LRpEQlULu_if7Jt6z-36">
          <mxGeometry relative="1" as="geometry" />
        </mxCell>
        <mxCell id="z-3LRpEQlULu_if7Jt6z-33" value="Fabricação" style="whiteSpace=wrap;html=1;fillColor=#5BBBFC;strokeColor=#228BBF;strokeWidth=4;gradientColor=#ffffff;" vertex="1" parent="1">
          <mxGeometry x="540" y="255" width="120" height="60" as="geometry" />
        </mxCell>
        <mxCell id="z-3LRpEQlULu_if7Jt6z-35" value="&lt;b&gt;Projeto Aprovado&lt;/b&gt;" style="text;html=1;align=center;verticalAlign=middle;resizable=0;points=[];autosize=1;strokeColor=none;fillColor=none;" vertex="1" parent="1">
          <mxGeometry x="420" y="256" width="120" height="20" as="geometry" />
        </mxCell>
        <mxCell id="z-3LRpEQlULu_if7Jt6z-39" value="" style="edgeStyle=orthogonalEdgeStyle;rounded=0;orthogonalLoop=1;jettySize=auto;html=1;fillColor=#f8cecc;strokeColor=#b85450;strokeWidth=5;" edge="1" parent="1" source="z-3LRpEQlULu_if7Jt6z-36" target="z-3LRpEQlULu_if7Jt6z-38">
          <mxGeometry relative="1" as="geometry" />
        </mxCell>
        <mxCell id="z-3LRpEQlULu_if7Jt6z-36" value="Registro de Produção" style="whiteSpace=wrap;html=1;fillColor=#f8cecc;strokeColor=#b85450;strokeWidth=4;" vertex="1" parent="1">
          <mxGeometry x="695" y="254" width="130" height="60" as="geometry" />
        </mxCell>
        <mxCell id="z-3LRpEQlULu_if7Jt6z-38" value="&lt;b&gt;FIM&lt;/b&gt;" style="ellipse;whiteSpace=wrap;html=1;fillColor=#d5e8d4;strokeColor=#82b366;strokeWidth=4;" vertex="1" parent="1">
          <mxGeometry x="695" y="350" width="120" height="60" as="geometry" />
        </mxCell>
        <mxCell id="z-3LRpEQlULu_if7Jt6z-41" value="&lt;b&gt;Validação Reprovada&lt;/b&gt;" style="text;html=1;align=center;verticalAlign=middle;resizable=0;points=[];autosize=1;strokeColor=none;fillColor=none;" vertex="1" parent="1">
          <mxGeometry x="451" y="93" width="140" height="20" as="geometry" />
        </mxCell>
        <mxCell id="z-3LRpEQlULu_if7Jt6z-43" value="&lt;b&gt;Liberação Negada&lt;/b&gt;" style="text;html=1;align=center;verticalAlign=middle;resizable=0;points=[];autosize=1;strokeColor=none;fillColor=none;" vertex="1" parent="1">
          <mxGeometry x="255" y="207" width="120" height="20" as="geometry" />
        </mxCell>
        <mxCell id="z-3LRpEQlULu_if7Jt6z-45" value="&lt;b&gt;Projeto Reprovado&lt;/b&gt;" style="text;html=1;align=center;verticalAlign=middle;resizable=0;points=[];autosize=1;strokeColor=none;fillColor=none;" vertex="1" parent="1">
          <mxGeometry x="230" y="332.5" width="120" height="20" as="geometry" />
        </mxCell>
      </root>
    </mxGraphModel>
  </diagram>
</mxfile>
